<?xml version="1.0" encoding="UTF-8" standalone="no"?>
<!-- Created with Inkscape (http://www.inkscape.org/) -->

<svg
   width="33.699722mm"
   height="18.15926mm"
   viewBox="0 0 33.699722 18.15926"
   version="1.1"
   id="svg5"
   inkscape:version="1.1.1 (3bf5ae0d25, 2021-09-20)"
   sodipodi:docname="logo-black.svg"
   inkscape:export-filename="C:\Users\tab89\Documents\gitRepos\TylerB890.github.io\vitepress-portfolio\docs\assets\logo-black.png"
   inkscape:export-xdpi="96"
   inkscape:export-ydpi="96"
   xmlns:inkscape="http://www.inkscape.org/namespaces/inkscape"
   xmlns:sodipodi="http://sodipodi.sourceforge.net/DTD/sodipodi-0.dtd"
   xmlns="http://www.w3.org/2000/svg"
   xmlns:svg="http://www.w3.org/2000/svg">
  <sodipodi:namedview
     id="namedview7"
     pagecolor="#ffffff"
     bordercolor="#666666"
     borderopacity="1.0"
     inkscape:pageshadow="2"
     inkscape:pageopacity="0.0"
     inkscape:pagecheckerboard="0"
     inkscape:document-units="mm"
     showgrid="false"
     inkscape:snap-bbox="false"
     inkscape:snap-global="false"
     inkscape:zoom="6.2217172"
     inkscape:cx="58.263657"
     inkscape:cy="34.476013"
     inkscape:window-width="3440"
     inkscape:window-height="1377"
     inkscape:window-x="-8"
     inkscape:window-y="-8"
     inkscape:window-maximized="1"
     inkscape:current-layer="layer1" />
  <defs
     id="defs2">
    <rect
       x="114.43786"
       y="240.44809"
       width="478.32455"
       height="176.15717"
       id="rect3554" />
  </defs>
  <g
     inkscape:label="Layer 1"
     inkscape:groupmode="layer"
     id="layer1"
     transform="translate(-34.872431,-66.177744)">
    <path
       d="m 46.29931,68.324171 v 0 l -5.77349,16.012832 h -2.681602 l 6.074193,-16.133113 -9.04598,0.120281 v -2.146427 h 12.329341 z"
       style="font-size:85.3333px;line-height:1.25;white-space:pre;shape-inside:url(#rect3554);stroke-width:0.308445"
       id="path27800"
       sodipodi:nodetypes="ccccccccc" />
    <path
       d="m 57.544604,84.337003 h -2.569085 l -1.777662,-5.061177 h -7.841193 l -1.777661,5.061177 h -2.447326 l 6.599262,-18.159259 h 3.214402 z m -5.089469,-7.13443 -3.177876,-8.914989 -3.190049,8.914989 z"
       style="font-size:85.3333px;line-height:1.25;white-space:pre;shape-inside:url(#rect3554);stroke-width:0.292456"
       id="path27802" />
    <path
       d="m 68.57215,78.751413 c 0,0.902475 -0.170461,1.699256 -0.511382,2.390341 -0.340921,0.691084 -0.799542,1.260212 -1.375861,1.707385 -0.681843,0.536607 -1.432681,0.918736 -2.252516,1.146386 -0.811717,0.227652 -1.846656,0.341478 -3.104818,0.341478 h -3.253802 l -6.35,-18.159259 h 5.898677 c 1.323099,0 2.313395,0.04878 2.970886,0.146347 0.657491,0.09757 1.286572,0.300825 1.887243,0.60978 0.665609,0.349608 1.148581,0.800846 1.448915,1.353713 0.300337,0.544738 0.450505,1.199235 0.450505,1.963492 0,0.861824 -0.256375,1.586993 -0.551178,2.244614 -0.249423,0.478887 -0.494281,0.843606 -0.825464,1.047285 l 0.01595,-0.0088 c 2.509595,-0.01948 3.787362,1.265812 4.493555,2.095114 0.706195,0.82117 1.059292,1.861861 1.059292,3.122074 z m -6.700361,-8.183252 c 0,-0.439042 -0.07305,-0.808975 -0.219163,-1.109798 -0.146109,-0.300826 -0.381508,-0.544738 -0.706196,-0.731737 -0.381507,-0.219521 -0.844185,-0.353673 -1.388034,-0.402455 -0.543852,-0.05691 -1.217578,-0.08537 -2.021179,-0.08537 h -2.344314 l 2.116667,5.244112 h 0.471162 c 0.754897,0 1.355569,-0.03659 1.802014,-0.109761 0.446443,-0.0813 0.860419,-0.24391 1.241928,-0.487822 0.381507,-0.243913 0.649374,-0.556934 0.803601,-0.939064 0.162343,-0.390258 0.243514,-0.849626 0.243514,-1.378104 z m 4.192154,8.280819 c 0,0.731737 -0.109582,-1.31306 -0.328746,-1.743971 -0.219164,-0.430913 -0.616905,-0.796782 -1.193224,-1.097605 -0.389625,-0.203261 -0.86448,-0.333348 -1.424565,-0.390259 -0.551967,-0.06505 -1.225692,-0.09757 -2.021175,-0.09757 h -3.257496 l 2.645833,6.756368 h 0.01505 c 1.055234,0 1.919714,-0.05285 2.593439,-0.158544 0.673725,-0.113825 1.225693,-0.317084 1.655905,-0.609779 0.454561,-0.317086 0.787365,-0.678889 0.998411,-1.085409 0.211046,-0.406521 0.316569,-2.215535 0.316569,-1.573234 z"
       style="font-size:85.3333px;line-height:1.25;white-space:pre;shape-inside:url(#rect3554);stroke-width:0.292456"
       id="path27804"
       sodipodi:nodetypes="ssccsccssccsccccssssccsccscscssssccsccsccsss" />
  </g>
</svg>
